<?xml version="1.0" encoding="UTF-8" standalone="no"?>
<svg
   id="Layer_1"
   data-name="Layer 1"
   viewBox="0 0 417.1 365.91"
   version="1.1"
   sodipodi:docname="sockudo-logo-color.svg"
   inkscape:version="1.4.2 (ebf0e940d0, 2025-05-08)"
   width="417.10001"
   height="365.91"
   xmlns:inkscape="http://www.inkscape.org/namespaces/inkscape"
   xmlns:sodipodi="http://sodipodi.sourceforge.net/DTD/sodipodi-0.dtd"
   xmlns="http://www.w3.org/2000/svg"
   xmlns:svg="http://www.w3.org/2000/svg">
  <sodipodi:namedview
     id="namedview12"
     pagecolor="#ffffff"
     bordercolor="#000000"
     borderopacity="0.25"
     inkscape:showpageshadow="2"
     inkscape:pageopacity="0.0"
     inkscape:pagecheckerboard="0"
     inkscape:deskcolor="#d1d1d1"
     inkscape:zoom="0.65623059"
     inkscape:cx="574.49318"
     inkscape:cy="248.3883"
     inkscape:window-width="2560"
     inkscape:window-height="1372"
     inkscape:window-x="0"
     inkscape:window-y="0"
     inkscape:window-maximized="1"
     inkscape:current-layer="Layer_1" />
  <defs
     id="defs1">
    <style
       id="style1">
      .cls-1 {
        fill: #fefcfb;
      }

      .cls-2 {
        fill: #7938d3;
      }

      .cls-3 {
        fill: #0a131a;
      }
    </style>
  </defs>
  <path
     class="cls-3"
     d="M 417.1,182.95 C 417.1,284 341.47,365.91 248.18,365.91 154.89,365.91 79.27,284 79.27,182.95 c 0,-12.16 1.1,-24.04 3.2,-35.54 3.7,-20.44 10.56,-39.65 20.01,-57.03 C 131.78,36.3 186.06,0 248.17,0 c 62.11,0 116.39,36.3 145.72,90.38 9.45,17.38 16.31,36.59 20.01,57.03 2.1,11.49 3.2,23.37 3.2,35.54 z"
     id="path1" />
  <path
     class="cls-2"
     d="M 413.9,147.41 C 410.2,126.97 403.34,107.76 393.89,90.38 H 102.51 C 81.83,59.35 46.52,38.9 6.42,38.9 c -1.96,0 -3.91,0.06 -5.86,0.15 8.49,32.92 31.13,60.13 61.05,74.78 -26.15,4.33 -48.46,20.08 -61.61,41.95 10.27,4.16 21.5,6.44 33.25,6.44 18.21,0 35.13,-5.48 49.22,-14.87 0,0.02 0,0.04 -0.01,0.06 h 331.43 z"
     id="path2" />
  <path
     class="cls-1"
     d="M 324.17,235.47 H 172.19 c -24.85,0 -45,-20.15 -45,-45 v -41.93 c 0,-3.97 3.32,-7.13 7.29,-6.91 13.07,0.71 40.16,2.13 51.04,2.38 31.32,0.75 93.99,0.75 125.31,0 10.88,-0.26 37.97,-1.68 51.04,-2.38 3.96,-0.21 7.29,2.94 7.29,6.91 v 41.93 c 0,24.85 -20.15,45 -45,45 z"
     id="path10" />
  <g
     id="g12">
    <path
       class="cls-3"
       d="m 216.5,200.84 c -6.56,6.78 -16.09,10.66 -26.49,9.57 -15.53,-1.63 -27.78,-14.64 -28.55,-30.24 -0.36,-7.22 1.66,-13.94 5.38,-19.45 0.72,-1.08 2.28,-1.52 3.46,-1 l 41.87,18.74 c 8.8,3.94 11.04,15.44 4.34,22.37 z"
       id="path11" />
    <path
       class="cls-3"
       d="m 279.86,200.84 c 6.56,6.78 16.09,10.66 26.49,9.57 15.53,-1.63 27.78,-14.64 28.55,-30.24 0.36,-7.22 -1.66,-13.94 -5.38,-19.45 -0.72,-1.08 -2.28,-1.52 -3.46,-1 l -41.87,18.74 c -8.8,3.94 -11.04,15.44 -4.34,22.37 z"
       id="path12" />
  </g>
</svg>
