<svg width="824" height="824" viewBox="0 0 824 824" fill="none" xmlns="http://www.w3.org/2000/svg">
<mask id="mask0_6646_9" style="mask-type:luminance" maskUnits="userSpaceOnUse" x="0" y="0" width="824" height="824">
<path fill-rule="evenodd" clip-rule="evenodd" d="M824 256.627C824 246.845 824.004 237.062 823.944 227.279C823.895 219.038 823.8 210.799 823.576 202.562C823.092 184.609 822.033 166.502 818.84 148.749C815.602 130.741 810.314 113.98 801.981 97.6166C793.789 81.5337 783.088 66.8168 770.32 54.0578C757.555 41.2989 742.834 30.6049 726.746 22.4179C710.366 14.0829 693.587 8.79697 675.558 5.55998C657.803 2.37199 639.691 1.315 621.738 0.829997C613.495 0.606998 605.253 0.512998 597.008 0.461998C587.22 0.401999 577.432 0.406999 567.644 0.406999L453.997 0H368.997L257.361 0.406999C247.554 0.406999 237.747 0.401999 227.94 0.461998C219.678 0.512998 211.42 0.606998 203.161 0.829997C185.167 1.315 167.014 2.37299 149.217 5.56498C131.164 8.80097 114.36 14.0849 97.9583 22.4139C81.8354 30.6019 67.0825 41.2969 54.2906 54.0578C41.5007 66.8158 30.7798 81.5297 22.5728 97.6096C14.2169 113.981 8.91893 130.752 5.67296 148.77C2.47698 166.516 1.41799 184.617 0.930993 202.562C0.708995 210.8 0.612996 219.039 0.562996 227.279C0.502996 237.063 0 249.216 0 258.999L0.00299998 369.089L0 454.998L0.507996 567.427C0.507996 577.223 0.503996 587.019 0.562996 596.815C0.612996 605.067 0.708995 613.317 0.931993 621.566C1.41799 639.542 2.47898 657.675 5.67796 675.452C8.92293 693.484 14.2199 710.269 22.5688 726.653C30.7768 742.759 41.4997 757.495 54.2906 770.272C67.0815 783.049 81.8304 793.757 97.9503 801.956C114.362 810.302 131.174 815.595 149.238 818.836C167.027 822.029 185.174 823.088 203.161 823.573C211.42 823.796 219.679 823.891 227.941 823.941C237.748 824.001 247.554 823.997 257.361 823.997L370.006 824H455.217L567.644 823.996C577.432 823.996 587.22 824.001 597.008 823.941C605.253 823.891 613.495 823.796 621.738 823.573C639.698 823.087 657.816 822.027 675.579 818.832C693.597 815.591 710.368 810.3 726.739 801.959C742.831 793.761 757.554 783.051 770.32 770.272C783.086 757.497 793.786 742.763 801.978 726.66C810.316 710.268 815.604 693.475 818.844 675.431C822.034 657.661 823.092 639.535 823.577 621.566C823.8 613.316 823.895 605.066 823.944 596.815C824.005 587.019 824 577.223 824 567.427C824 567.427 823.994 456.983 823.994 454.998V368.999C823.994 367.533 824 256.627 824 256.627Z" fill="white"/>
</mask>
<g mask="url(#mask0_6646_9)">
<rect x="-45" y="-45" width="914" height="914" fill="url(#paint0_linear_6646_9)"/>
</g>
<path d="M291.535 149.995C377.557 110.122 474.144 114.589 556.54 162.273C723.162 258.693 707.282 439.5 588.442 508.277L461.529 581.726C440.676 593.795 414.77 593.796 393.911 581.726C372.433 569.298 361.52 547.541 360.241 527.112C360.092 524.726 360.646 522.375 361.839 520.305L408.516 439.263C414.293 429.232 424.971 423.053 436.525 423.053H523.95C535.218 423.053 546.14 419.106 554.803 411.882C603.964 370.89 593.846 297.883 543.072 268.494L415.878 194.882C366.791 166.474 306.808 159.404 250.876 178.026C246.959 179.33 245.601 176.593 249.005 174.252C262.364 165.063 276.575 156.929 291.535 149.995ZM147.309 297.502C168.136 249.779 208.401 213.104 257.782 196.873C297.211 183.917 339.71 184.975 378.198 199.242C398.92 206.954 394.532 205.835 533.101 285.809C553.955 297.878 566.91 320.37 566.91 344.507C566.91 376.131 546.589 393.808 538.532 399.653C536.983 400.777 534.917 400.883 533.261 399.924L353.051 295.628C294.81 261.922 221.714 304.163 221.714 371.636V518.445V518.86C221.714 576.709 246.416 631.967 289.485 670.462C292.563 673.214 290.88 675.749 287.157 673.969C145.332 606.182 85.3615 439.432 147.309 297.502ZM302.479 655.109C263.823 620.406 241.655 570.594 241.655 518.445V371.636C241.655 321.893 292.997 289.692 337.338 310.126C339.058 310.919 340.164 312.647 340.164 314.545C340.164 348.114 340.164 498.189 340.164 523.033C340.164 590.446 413.227 632.774 471.501 599.041L598.336 525.639C598.361 525.624 598.386 525.606 598.412 525.592L598.694 525.429C647.798 497.01 683.923 448.437 695.783 390.516C696.612 386.469 699.641 386.653 699.978 390.771C719.953 634.57 442.164 780.522 302.479 655.109Z" fill="url(#paint1_linear_6646_9)"/>
<defs>
<linearGradient id="paint0_linear_6646_9" x1="-141.677" y1="-238.354" x2="-141.677" y2="869" gradientUnits="userSpaceOnUse">
<stop stop-color="#767676"/>
<stop offset="1"/>
</linearGradient>
<linearGradient id="paint1_linear_6646_9" x1="412" y1="123" x2="412" y2="701" gradientUnits="userSpaceOnUse">
<stop stop-color="white"/>
<stop offset="1" stop-color="#F5F4F4" stop-opacity="0.9"/>
</linearGradient>
</defs>
</svg>
