<?xml version="1.0" encoding="UTF-8"?>
<svg id="Layer_1" data-name="Layer 1" xmlns="http://www.w3.org/2000/svg" viewBox="0 0 1303.27 365.91">
  <defs>
    <style>
      .cls-1 {
        fill: #fefcfb;
      }

      .cls-2 {
        fill: #7938d3;
      }

      .cls-3 {
        fill: #0a131a;
      }
    </style>
  </defs>
  <path class="cls-3" d="m417.1,182.95c0,101.05-75.63,182.96-168.92,182.96s-168.91-81.91-168.91-182.96c0-12.16,1.1-24.04,3.2-35.54,3.7-20.44,10.56-39.65,20.01-57.03C131.78,36.3,186.06,0,248.17,0s116.39,36.3,145.72,90.38c9.45,17.38,16.31,36.59,20.01,57.03,2.1,11.49,3.2,23.37,3.2,35.54Z"/>
  <path class="cls-2" d="m413.9,147.41c-3.7-20.44-10.56-39.65-20.01-57.03H102.51C81.83,59.35,46.52,38.9,6.42,38.9c-1.96,0-3.91.06-5.86.15,8.49,32.92,31.13,60.13,61.05,74.78C35.46,118.16,13.15,133.91,0,155.78c10.27,4.16,21.5,6.44,33.25,6.44,18.21,0,35.13-5.48,49.22-14.87,0,.02,0,.04-.01.06h331.43Z"/>
  <g>
    <path class="cls-3" d="m566.52,183.66c-4.34-3.98-9.73-7.58-16.17-10.78-6.44-3.2-13.89-6.08-22.36-8.64-5.05-1.56-9.5-3.16-13.34-4.8-3.84-1.64-7.08-3.38-9.71-5.23-2.63-1.85-4.61-3.84-5.92-5.98-1.32-2.13-1.97-4.52-1.97-7.15,0-3.49.92-6.63,2.77-9.44,1.85-2.81,4.62-5.07,8.32-6.78,3.7-1.71,8.32-2.56,13.87-2.56s10.55,1.01,14.35,3.04c3.8,2.03,6.65,4.77,8.54,8.22,1.52,2.79,2.43,5.94,2.72,9.44.12,1.44,1.31,2.56,2.76,2.56h26.27c1.61,0,2.88-1.36,2.79-2.97-.46-8.05-2.8-15.27-7.01-21.68-4.73-7.19-11.37-12.84-19.9-16.97-8.54-4.13-18.53-6.19-29.99-6.19-8.39,0-16.1,1.03-23.1,3.1-7.01,2.06-13.07,5-18.19,8.8-5.12,3.81-9.11,8.36-11.95,13.66-2.85,5.3-4.27,11.19-4.27,17.66s1.37,12.56,4.11,17.61c2.74,5.05,6.51,9.48,11.31,13.29,4.8,3.81,10.35,7.13,16.65,9.98,6.3,2.85,12.97,5.41,20.01,7.68,6.33,1.99,11.49,3.91,15.47,5.76,3.98,1.85,7.08,3.72,9.28,5.6,2.2,1.89,3.72,3.95,4.54,6.19.82,2.24,1.23,4.75,1.23,7.52,0,3.49-.87,6.62-2.61,9.39-1.74,2.77-4.41,4.96-8,6.56-3.59,1.6-8.16,2.4-13.71,2.4-4.55,0-8.73-.48-12.54-1.44-3.81-.96-7.08-2.47-9.82-4.54-2.74-2.06-4.86-4.77-6.35-8.11-1.22-2.72-1.94-5.94-2.16-9.65-.09-1.47-1.3-2.62-2.77-2.62h-26.57c-1.6,0-2.86,1.34-2.79,2.94.37,7.52,2.16,14.12,5.37,19.79,3.63,6.4,8.48,11.67,14.57,15.79,6.08,4.13,12.86,7.2,20.33,9.23,7.47,2.03,15.05,3.04,22.73,3.04,8.54,0,16.26-.96,23.16-2.88,6.9-1.92,12.84-4.73,17.82-8.43,4.98-3.7,8.79-8.22,11.42-13.55,2.63-5.34,3.95-11.38,3.95-18.14,0-6.4-1.1-12.13-3.31-17.18-2.21-5.05-5.48-9.57-9.82-13.55Z"/>
    <path class="cls-3" d="m689.62,154.42c-4.66-5.26-10.4-9.37-17.23-12.33-6.83-2.95-14.62-4.43-23.37-4.43s-16.51,1.48-23.26,4.43c-6.76,2.95-12.45,7.06-17.07,12.33-4.63,5.27-8.15,11.47-10.56,18.62-2.42,7.15-3.63,14.96-3.63,23.42v2.24c0,8.39,1.21,16.17,3.63,23.32,2.42,7.15,5.96,13.38,10.62,18.68,4.66,5.3,10.39,9.41,17.18,12.33,6.79,2.92,14.57,4.38,23.32,4.38s16.5-1.46,23.26-4.38c6.76-2.92,12.47-7.02,17.13-12.33,4.66-5.3,8.2-11.53,10.62-18.68,2.42-7.15,3.63-14.92,3.63-23.32v-2.24c0-8.46-1.21-16.27-3.63-23.42-2.42-7.15-5.96-13.36-10.62-18.62Zm-16.59,44.29c0,4.84-.45,9.35-1.33,13.55-.89,4.2-2.26,7.88-4.11,11.05-1.85,3.17-4.31,5.64-7.36,7.42-3.06,1.78-6.72,2.67-10.99,2.67s-8.15-.89-11.2-2.67c-3.06-1.78-5.53-4.25-7.42-7.42-1.89-3.16-3.25-6.85-4.11-11.05-.85-4.2-1.28-8.71-1.28-13.55v-2.24c0-4.69.43-9.12,1.28-13.29.85-4.16,2.22-7.86,4.11-11.1,1.88-3.24,4.34-5.78,7.36-7.63,3.02-1.85,6.7-2.77,11.04-2.77s8.04.93,11.1,2.77c3.06,1.85,5.53,4.39,7.42,7.63,1.88,3.24,3.27,6.94,4.16,11.1.89,4.16,1.33,8.59,1.33,13.29v2.24Z"/>
    <path class="cls-3" d="m749.48,183.18c.6-4.09,1.69-7.75,3.25-10.99,1.56-3.24,3.77-5.8,6.62-7.68,2.84-1.88,6.51-2.83,10.99-2.83,4.2,0,7.74.94,10.62,2.83,2.88,1.89,5.09,4.39,6.62,7.52,1.19,2.44,1.94,5.09,2.25,7.96.15,1.42,1.33,2.5,2.76,2.5h23.44c1.61,0,2.88-1.36,2.79-2.97-.46-7.93-2.5-14.9-6.15-20.88-4.09-6.72-9.71-11.9-16.86-15.53-7.15-3.63-15.46-5.44-24.92-5.44-8.89,0-16.65,1.49-23.26,4.48-6.62,2.99-12.13,7.13-16.54,12.43-4.41,5.3-7.72,11.49-9.92,18.57-2.21,7.08-3.31,14.71-3.31,22.89v3.1c0,8.11,1.1,15.7,3.31,22.78,2.2,7.08,5.51,13.27,9.92,18.57,4.41,5.3,9.94,9.44,16.59,12.43,6.65,2.99,14.46,4.48,23.42,4.48s16.93-1.8,24.12-5.39c7.18-3.59,12.91-8.54,17.18-14.83,3.74-5.51,5.86-11.71,6.38-18.61.12-1.61-1.17-3-2.79-3h-23.43c-1.42,0-2.58,1.08-2.76,2.49-.34,2.6-1.15,4.92-2.43,6.96-1.67,2.67-3.97,4.73-6.88,6.19-2.92,1.46-6.26,2.19-10.03,2.19-4.55,0-8.25-.92-11.1-2.77-2.85-1.85-5.07-4.38-6.67-7.58-1.6-3.2-2.69-6.86-3.25-10.99-.57-4.13-.85-8.43-.85-12.91v-3.1c0-4.48.3-8.77.91-12.86Z"/>
    <path class="cls-3" d="m933.99,139.8h-29.5c-.81,0-1.59.36-2.12.98l-29.15,34.13-3.38,4.3c-.82,1.04-2.48.46-2.48-.86v-84.32c0-1.54-1.25-2.78-2.78-2.78h-25.17c-1.54,0-2.78,1.25-2.78,2.78v161.24h30.73v-34.8c0-.37.14-.72.4-.98l9.44-9.55c.63-.63,1.68-.52,2.16.23l28.87,45.1h35.43l-44.86-66.75c-.35-.52-.31-1.22.11-1.69l37.18-42.41c1.58-1.8.3-4.62-2.09-4.62Z"/>
    <path class="cls-3" d="m1021.66,221.15c0,.23-.05.46-.16.66-1.55,3.05-3.72,5.57-6.51,7.52-3.66,2.56-8.66,3.84-14.99,3.84-2.49,0-4.75-.32-6.78-.96-2.03-.64-3.79-1.71-5.28-3.2-1.49-1.49-2.65-3.42-3.47-5.76-.82-2.35-1.23-5.23-1.23-8.64v-72.02c0-1.54-1.25-2.78-2.78-2.78h-25.17c-1.54,0-2.78,1.25-2.78,2.78v71.81c0,7.68.94,14.25,2.83,19.69,1.88,5.44,4.52,9.89,7.9,13.34,3.38,3.45,7.43,5.98,12.17,7.58,4.73,1.6,9.91,2.4,15.53,2.4,7.33,0,13.69-1.33,19.1-4,5.02-2.48,9.23-5.88,12.65-10.2l.62,9.47c.1,1.46,1.31,2.6,2.78,2.6h23.53c1.54,0,2.78-1.25,2.78-2.78v-109.9c0-1.54-1.25-2.78-2.78-2.78h-25.17c-1.54,0-2.78,1.25-2.78,2.78v78.57Z"/>
    <path class="cls-3" d="m1143.95,146.74c0,1.24-1.49,1.84-2.37.98-2.34-2.29-4.91-4.21-7.71-5.78-5.09-2.84-11.01-4.27-17.77-4.27-7.19,0-13.59,1.43-19.21,4.27-5.62,2.85-10.35,6.87-14.19,12.06-3.84,5.19-6.76,11.4-8.75,18.62-1.99,7.22-2.99,15.24-2.99,24.06v2.24c0,8.39,1,16.15,2.99,23.26,1.99,7.11,4.89,13.3,8.7,18.57,3.81,5.27,8.5,9.35,14.09,12.27,5.58,2.92,11.97,4.38,19.15,4.38s12.81-1.42,17.93-4.27c3.61-2.01,6.85-4.59,9.7-7.75.8-.89,2.26-.44,2.41.75l.82,6.69c.17,1.4,1.36,2.44,2.76,2.44h22.61c1.54,0,2.78-1.25,2.78-2.78V94.13c0-1.54-1.25-2.78-2.78-2.78h-25.38c-1.54,0-2.78,1.25-2.78,2.78v52.6Zm-7.26,82.86c-3.41,2.38-7.76,3.57-13.02,3.57-4.06,0-7.49-.87-10.3-2.62-2.81-1.74-5.09-4.2-6.83-7.36-1.74-3.16-2.99-6.81-3.73-10.94-.75-4.13-1.12-8.57-1.12-13.34v-2.24c0-4.91.41-9.48,1.23-13.71.82-4.23,2.1-7.91,3.84-11.04,1.74-3.13,4.04-5.6,6.88-7.42,2.84-1.81,6.26-2.72,10.24-2.72s7.31.71,10.19,2.13c2.88,1.42,5.3,3.41,7.26,5.98.99,1.3,1.86,2.73,2.61,4.29v46.8c-1.78,3.6-4.19,6.48-7.26,8.62Z"/>
    <path class="cls-3" d="m1299.64,173.04c-2.42-7.15-5.96-13.36-10.62-18.62-4.66-5.26-10.4-9.37-17.23-12.33-6.83-2.95-14.62-4.43-23.37-4.43s-16.51,1.48-23.26,4.43c-6.76,2.95-12.45,7.06-17.07,12.33-4.63,5.27-8.15,11.47-10.56,18.62-2.42,7.15-3.63,14.96-3.63,23.42v2.24c0,8.39,1.21,16.17,3.63,23.32,2.42,7.15,5.96,13.38,10.62,18.68,4.66,5.3,10.39,9.41,17.18,12.33,6.79,2.92,14.57,4.38,23.32,4.38s16.5-1.46,23.26-4.38c6.76-2.92,12.47-7.02,17.13-12.33,4.66-5.3,8.2-11.53,10.62-18.68,2.42-7.15,3.63-14.92,3.63-23.32v-2.24c0-8.46-1.21-16.27-3.63-23.42Zm-27.21,25.67c0,4.84-.45,9.35-1.33,13.55-.89,4.2-2.26,7.88-4.11,11.05-1.85,3.17-4.31,5.64-7.36,7.42-3.06,1.78-6.72,2.67-10.99,2.67s-8.15-.89-11.2-2.67c-3.06-1.78-5.53-4.25-7.42-7.42-1.89-3.16-3.25-6.85-4.11-11.05-.85-4.2-1.28-8.71-1.28-13.55v-2.24c0-4.69.43-9.12,1.28-13.29.85-4.16,2.22-7.86,4.11-11.1,1.88-3.24,4.34-5.78,7.36-7.63,3.02-1.85,6.7-2.77,11.04-2.77s8.04.93,11.1,2.77c3.06,1.85,5.53,4.39,7.42,7.63,1.88,3.24,3.27,6.94,4.16,11.1.89,4.16,1.33,8.59,1.33,13.29v2.24Z"/>
  </g>
  <path class="cls-1" d="m324.17,235.47h-151.98c-24.85,0-45-20.15-45-45v-41.93c0-3.97,3.32-7.13,7.29-6.91,13.07.71,40.16,2.13,51.04,2.38,31.32.75,93.99.75,125.31,0,10.88-.26,37.97-1.68,51.04-2.38,3.96-.21,7.29,2.94,7.29,6.91v41.93c0,24.85-20.15,45-45,45Z"/>
  <g>
    <path class="cls-3" d="m216.5,200.84c-6.56,6.78-16.09,10.66-26.49,9.57-15.53-1.63-27.78-14.64-28.55-30.24-.36-7.22,1.66-13.94,5.38-19.45.72-1.08,2.28-1.52,3.46-1l41.87,18.74c8.8,3.94,11.04,15.44,4.34,22.37Z"/>
    <path class="cls-3" d="m279.86,200.84c6.56,6.78,16.09,10.66,26.49,9.57,15.53-1.63,27.78-14.64,28.55-30.24.36-7.22-1.66-13.94-5.38-19.45-.72-1.08-2.28-1.52-3.46-1l-41.87,18.74c-8.8,3.94-11.04,15.44-4.34,22.37Z"/>
  </g>
</svg>