<?xml version="1.0" encoding="UTF-8"?>
<svg id="Layer_1" data-name="Layer 1" xmlns="http://www.w3.org/2000/svg" viewBox="0 0 1303.26 365.91">
  <path d="m393.88,90.38C364.55,36.3,310.28,0,248.17,0s-116.37,36.29-145.69,90.35C81.8,59.34,46.51,38.91,6.42,38.91c-1.96,0-3.91.05-5.86.15,8.49,32.92,31.14,60.13,61.05,74.78C35.45,118.16,13.14,133.91,0,155.78c10.27,4.16,21.5,6.44,33.26,6.44,18.21,0,35.13-5.47,49.22-14.87-.01.02-.01.04-.01.07-2.11,11.49-3.2,23.37-3.2,35.53,0,101.05,75.62,182.96,168.91,182.96s168.92-81.91,168.92-182.96c0-12.16-1.1-24.04-3.2-35.53-3.7-20.44-10.56-39.66-20.01-57.04Zm-24.72,100.09c0,24.86-20.15,45-45,45h-151.98c-24.85,0-44.99-20.14-44.99-45v-41.93c0-.38.03-.76.1-1.12.55-3.43,3.6-5.99,7.19-5.79,13.07.7,40.15,2.12,51.04,2.38,31.32.75,93.99.75,125.31,0,10.88-.26,37.97-1.68,51.04-2.38,3.58-.2,6.64,2.36,7.19,5.79.07.36.1.74.1,1.12v41.93Z"/>
  <path d="m566.52,183.66c-4.34-3.98-9.73-7.58-16.17-10.78-6.44-3.2-13.89-6.08-22.36-8.64-5.05-1.56-9.5-3.16-13.34-4.8-3.84-1.64-7.08-3.38-9.71-5.23-2.63-1.85-4.61-3.84-5.92-5.98-1.32-2.13-1.97-4.52-1.97-7.15,0-3.49.92-6.63,2.77-9.44,1.85-2.81,4.62-5.07,8.32-6.78,3.7-1.71,8.32-2.56,13.87-2.56s10.55,1.01,14.35,3.04c3.8,2.03,6.65,4.77,8.54,8.22,1.52,2.79,2.43,5.94,2.72,9.44.12,1.44,1.31,2.56,2.76,2.56h26.27c1.61,0,2.88-1.36,2.79-2.97-.46-8.05-2.8-15.27-7.01-21.68-4.73-7.19-11.37-12.84-19.9-16.97-8.54-4.12-18.53-6.19-29.99-6.19-8.4,0-16.1,1.03-23.1,3.1-7.01,2.06-13.07,5-18.19,8.8-5.12,3.81-9.11,8.36-11.95,13.66-2.85,5.3-4.27,11.19-4.27,17.66s1.37,12.56,4.11,17.61c2.74,5.05,6.51,9.48,11.31,13.29,4.8,3.81,10.35,7.13,16.65,9.98,6.3,2.85,12.97,5.41,20.01,7.68,6.33,1.99,11.49,3.91,15.47,5.76,3.98,1.85,7.08,3.72,9.28,5.6,2.2,1.89,3.72,3.95,4.54,6.19.82,2.24,1.23,4.75,1.23,7.52,0,3.49-.87,6.62-2.61,9.39-1.74,2.77-4.41,4.96-8,6.56-3.59,1.6-8.16,2.4-13.71,2.4-4.55,0-8.73-.48-12.54-1.44-3.81-.96-7.08-2.47-9.82-4.54-2.74-2.06-4.86-4.77-6.35-8.11-1.22-2.72-1.94-5.94-2.16-9.65-.09-1.47-1.3-2.62-2.77-2.62h-26.57c-1.6,0-2.86,1.34-2.79,2.94.37,7.52,2.16,14.12,5.37,19.79,3.63,6.4,8.48,11.67,14.57,15.79,6.08,4.13,12.86,7.2,20.33,9.23,7.47,2.03,15.05,3.04,22.73,3.04,8.54,0,16.26-.96,23.16-2.88,6.9-1.92,12.84-4.73,17.82-8.43,4.98-3.7,8.79-8.22,11.42-13.55,2.63-5.34,3.95-11.38,3.95-18.14,0-6.4-1.1-12.13-3.31-17.18-2.21-5.05-5.48-9.57-9.82-13.55Z"/>
  <path d="m689.61,154.42c-4.66-5.26-10.4-9.37-17.23-12.33-6.83-2.95-14.62-4.42-23.37-4.42s-16.51,1.47-23.27,4.42c-6.76,2.96-12.45,7.07-17.07,12.33-4.63,5.27-8.15,11.47-10.57,18.62-2.42,7.15-3.62,14.96-3.62,23.42v2.25c0,8.39,1.2,16.16,3.62,23.31,2.42,7.15,5.96,13.38,10.62,18.68,4.66,5.3,10.39,9.41,17.18,12.32,6.8,2.92,14.57,4.38,23.32,4.38s16.5-1.46,23.26-4.38c6.76-2.91,12.47-7.02,17.13-12.32,4.66-5.3,8.2-11.53,10.62-18.68,2.42-7.15,3.63-14.92,3.63-23.31v-2.25c0-8.46-1.21-16.27-3.63-23.42-2.42-7.15-5.96-13.35-10.62-18.62Zm-16.59,44.29c0,4.84-.45,9.35-1.34,13.55-.89,4.2-2.26,7.88-4.11,11.04-1.85,3.17-4.3,5.64-7.36,7.42-3.06,1.78-6.72,2.67-10.99,2.67s-8.15-.89-11.21-2.67c-3.05-1.78-5.53-4.25-7.41-7.42-1.89-3.16-3.26-6.84-4.11-11.04-.85-4.2-1.28-8.71-1.28-13.55v-2.25c0-4.69.43-9.12,1.28-13.28.85-4.16,2.22-7.86,4.11-11.1,1.88-3.24,4.34-5.78,7.36-7.63,3.02-1.85,6.71-2.77,11.05-2.77s8.04.92,11.09,2.77c3.06,1.85,5.54,4.39,7.42,7.63,1.89,3.24,3.27,6.94,4.16,11.1.89,4.16,1.34,8.59,1.34,13.28v2.25Z"/>
  <path d="m749.48,183.18c.6-4.09,1.69-7.75,3.25-10.99,1.56-3.24,3.77-5.8,6.62-7.68,2.84-1.88,6.51-2.83,10.99-2.83,4.2,0,7.74.94,10.62,2.83,2.88,1.89,5.09,4.39,6.62,7.52,1.19,2.44,1.94,5.09,2.25,7.96.15,1.42,1.33,2.5,2.76,2.5h23.44c1.61,0,2.88-1.36,2.79-2.97-.46-7.93-2.5-14.9-6.15-20.88-4.09-6.72-9.71-11.9-16.86-15.53-7.15-3.63-15.46-5.44-24.92-5.44-8.89,0-16.65,1.49-23.26,4.48-6.62,2.99-12.13,7.13-16.54,12.43-4.41,5.3-7.72,11.49-9.93,18.57-2.21,7.08-3.31,14.71-3.31,22.89v3.1c0,8.11,1.1,15.7,3.31,22.78,2.2,7.08,5.51,13.27,9.93,18.57,4.41,5.3,9.94,9.44,16.59,12.43,6.65,2.99,14.46,4.48,23.42,4.48s16.93-1.8,24.12-5.39c7.18-3.59,12.91-8.54,17.18-14.83,3.74-5.51,5.86-11.71,6.38-18.61.12-1.61-1.17-3-2.79-3h-23.43c-1.42,0-2.58,1.08-2.76,2.49-.34,2.6-1.15,4.92-2.43,6.96-1.67,2.67-3.97,4.73-6.88,6.19-2.92,1.46-6.26,2.19-10.03,2.19-4.55,0-8.25-.92-11.1-2.77-2.85-1.85-5.07-4.38-6.67-7.58-1.6-3.2-2.69-6.86-3.25-10.99-.57-4.13-.85-8.43-.85-12.91v-3.1c0-4.48.3-8.77.91-12.86Z"/>
  <path d="m898.89,186.82l37.18-42.41c1.58-1.8.3-4.62-2.09-4.62h-29.5c-.81,0-1.59.36-2.12.98l-29.15,34.13-3.38,4.3c-.82,1.04-2.48.46-2.48-.86v-84.32c0-1.54-1.25-2.78-2.78-2.78h-25.17c-1.54,0-2.78,1.25-2.78,2.78v161.24h30.73v-34.8c0-.37.14-.72.4-.98l9.44-9.55c.63-.63,1.68-.52,2.16.23l28.87,45.1h35.43l-44.86-66.75c-.35-.52-.31-1.22.11-1.69Z"/>
  <path d="m1049.6,139.8h-25.17c-1.54,0-2.78,1.25-2.78,2.78v78.57c0,.23-.05.46-.16.66-1.55,3.05-3.72,5.57-6.51,7.52-3.66,2.56-8.66,3.84-14.99,3.84-2.49,0-4.75-.32-6.78-.96-2.03-.64-3.79-1.71-5.28-3.2-1.49-1.49-2.65-3.42-3.47-5.76-.82-2.35-1.23-5.23-1.23-8.64v-72.02c0-1.54-1.25-2.78-2.78-2.78h-25.17c-1.54,0-2.78,1.25-2.78,2.78v71.81c0,7.68.94,14.25,2.83,19.69,1.88,5.44,4.52,9.89,7.9,13.34,3.38,3.45,7.43,5.98,12.17,7.58,4.73,1.6,9.91,2.4,15.53,2.4,7.33,0,13.69-1.33,19.1-4,5.02-2.48,9.23-5.88,12.65-10.2l.62,9.47c.1,1.46,1.31,2.6,2.78,2.6h23.53c1.54,0,2.78-1.25,2.78-2.78v-109.9c0-1.54-1.25-2.78-2.78-2.78Z"/>
  <path d="m1172.11,91.35h-25.38c-1.54,0-2.79,1.25-2.79,2.79v52.6c0,1.24-1.48,1.84-2.37.97-2.34-2.28-4.91-4.21-7.71-5.78-5.09-2.84-11.01-4.26-17.77-4.26-7.18,0-13.59,1.42-19.21,4.26-5.62,2.85-10.35,6.87-14.19,12.06-3.84,5.2-6.76,11.4-8.75,18.62-1.99,7.23-2.99,15.25-2.99,24.07v2.24c0,8.39,1,16.15,2.99,23.26,1.99,7.12,4.89,13.31,8.7,18.57,3.8,5.27,8.5,9.36,14.08,12.27,5.59,2.92,11.97,4.38,19.16,4.38s12.8-1.43,17.93-4.27c3.61-2.01,6.84-4.59,9.7-7.75.8-.89,2.26-.44,2.41.75l.82,6.69c.17,1.4,1.35,2.44,2.76,2.44h22.61c1.53,0,2.78-1.24,2.78-2.78V94.14c0-1.54-1.25-2.79-2.78-2.79Zm-28.17,129.63c-1.77,3.6-4.19,6.48-7.25,8.62-3.42,2.38-7.76,3.58-13.02,3.58-4.06,0-7.49-.88-10.3-2.62-2.81-1.74-5.09-4.2-6.83-7.36-1.74-3.17-2.99-6.81-3.73-10.94-.75-4.13-1.13-8.57-1.13-13.34v-2.24c0-4.91.41-9.48,1.23-13.71.82-4.24,2.1-7.92,3.84-11.05,1.75-3.13,4.04-5.6,6.89-7.42,2.84-1.81,6.26-2.72,10.24-2.72s7.31.71,10.19,2.14c2.88,1.42,5.3,3.41,7.26,5.97.99,1.3,1.86,2.73,2.61,4.3v46.79Z"/>
  <path d="m1299.64,173.04c-2.42-7.15-5.96-13.35-10.62-18.62-4.66-5.26-10.4-9.37-17.23-12.33-6.83-2.95-14.62-4.42-23.37-4.42s-16.51,1.47-23.27,4.42c-6.76,2.96-12.45,7.07-17.07,12.33-4.63,5.27-8.15,11.47-10.57,18.62-2.42,7.15-3.62,14.96-3.62,23.42v2.25c0,8.39,1.2,16.16,3.62,23.31,2.42,7.15,5.96,13.38,10.62,18.68,4.66,5.3,10.39,9.41,17.18,12.32,6.8,2.92,14.57,4.38,23.32,4.38s16.5-1.46,23.26-4.38c6.76-2.91,12.47-7.02,17.13-12.32,4.66-5.3,8.2-11.53,10.62-18.68,2.42-7.15,3.63-14.92,3.63-23.31v-2.25c0-8.46-1.21-16.27-3.63-23.42Zm-27.21,25.67c0,4.84-.45,9.35-1.34,13.55-.89,4.2-2.26,7.88-4.11,11.04-1.85,3.17-4.3,5.64-7.36,7.42-3.06,1.78-6.72,2.67-10.99,2.67s-8.15-.89-11.21-2.67c-3.06-1.78-5.53-4.25-7.41-7.42-1.89-3.16-3.26-6.84-4.11-11.04-.85-4.2-1.28-8.71-1.28-13.55v-2.25c0-4.69.43-9.12,1.28-13.28.85-4.16,2.22-7.86,4.11-11.1,1.88-3.24,4.34-5.78,7.36-7.63,3.02-1.85,6.71-2.77,11.05-2.77s8.03.92,11.09,2.77c3.06,1.85,5.53,4.39,7.42,7.63,1.89,3.24,3.27,6.94,4.16,11.1.89,4.16,1.34,8.59,1.34,13.28v2.25Z"/>
  <path d="m212.16,178.48l-41.87-18.74c-1.18-.53-2.74-.09-3.46.99-3.72,5.51-5.74,12.23-5.38,19.45.77,15.59,13.02,28.61,28.55,30.23,10.4,1.09,19.93-2.79,26.49-9.57,6.71-6.92,4.47-18.42-4.33-22.36Z"/>
  <path d="m326.05,159.74l-41.86,18.74c-8.8,3.94-11.05,15.44-4.34,22.36,6.56,6.78,16.09,10.66,26.5,9.57,15.52-1.62,27.77-14.64,28.55-30.23.36-7.22-1.67-13.94-5.38-19.45-.73-1.08-2.28-1.52-3.47-.99Z"/>
</svg>