<?xml version="1.0" encoding="UTF-8"?>
<svg id="Layer_1" data-name="Layer 1" xmlns="http://www.w3.org/2000/svg" viewBox="0 0 420 366">
  <defs>
    <style>
      .cls-1 {
        fill: #fefcfb;
      }

      .cls-2 {
        fill: #7938d3;
      }

      .cls-3 {
        fill: #0a131a;
      }
    </style>
  </defs>
  <!-- Ninja head circle -->
  <path class="cls-3" d="m417.1,182.95c0,101.05-75.63,182.96-168.92,182.96s-168.91-81.91-168.91-182.96c0-12.16,1.1-24.04,3.2-35.54,3.7-20.44,10.56-39.65,20.01-57.03C131.78,36.3,186.06,0,248.17,0s116.39,36.3,145.72,90.38c9.45,17.38,16.31,36.59,20.01,57.03,2.1,11.49,3.2,23.37,3.2,35.54Z"/>

  <!-- Purple headband -->
  <path class="cls-2" d="m413.9,147.41c-3.7-20.44-10.56-39.65-20.01-57.03H102.51C81.83,59.35,46.52,38.9,6.42,38.9c-1.96,0-3.91.06-5.86.15,8.49,32.92,31.13,60.13,61.05,74.78C35.46,118.16,13.15,133.91,0,155.78c10.27,4.16,21.5,6.44,33.25,6.44,18.21,0,35.13-5.48,49.22-14.87,0,.02,0,.04-.01.06h331.43Z"/>

  <!-- White mask/face -->
  <path class="cls-1" d="m324.17,235.47h-151.98c-24.85,0-45-20.15-45-45v-41.93c0-3.97,3.32-7.13,7.29-6.91,13.07.71,40.16,2.13,51.04,2.38,31.32.75,93.99.75,125.31,0,10.88-.26,37.97-1.68,51.04-2.38,3.96-.21,7.29,2.94,7.29,6.91v41.93c0,24.85-20.15,45-45,45Z"/>

  <!-- Eyes -->
  <g>
    <path class="cls-3" d="m216.5,200.84c-6.56,6.78-16.09,10.66-26.49,9.57-15.53-1.63-27.78-14.64-28.55-30.24-.36-7.22,1.66-13.94,5.38-19.45.72-1.08,2.28-1.52,3.46-1l41.87,18.74c8.8,3.94,11.04,15.44,4.34,22.37Z"/>
    <path class="cls-3" d="m279.86,200.84c6.56,6.78,16.09,10.66,26.49,9.57,15.53-1.63,27.78-14.64,28.55-30.24.36-7.22-1.66-13.94-5.38-19.45-.72-1.08-2.28-1.52-3.46-1l-41.87,18.74c-8.8,3.94-11.04,15.44-4.34,22.37Z"/>
  </g>
</svg>
